Coordinates
version=1
nRows=11
nColumns=40
inDegrees=yes

Units are S.I. units (second, meters, Newtons, ...)
If the header above contains a line with 'inDegrees', this indicates whether rotational values are in degrees (yes) or radians (no).

endheader
time	pelvis_tilt	pelvis_list	pelvis_rotation	pelvis_tx	pelvis_ty	pelvis_tz	hip_flexion_r	hip_adduction_r	hip_rotation_r	knee_angle_r	knee_angle_r_beta	ankle_angle_r	subtalar_angle_r	mtp_angle_r	hip_flexion_l	hip_adduction_l	hip_rotation_l	knee_angle_l	knee_angle_l_beta	ankle_angle_l	subtalar_angle_l	mtp_angle_l	lumbar_extension	lumbar_bending	lumbar_rotation	arm_flex_r	arm_add_r	arm_rot_r	elbow_flex_r	pro_sup_r	wrist_flex_r	wrist_dev_r	arm_flex_l	arm_add_l	arm_rot_l	elbow_flex_l	pro_sup_l	wrist_flex_l	wrist_dev_l
      3.51500000	    -34.88123248	     -6.79546560	     22.63536976	     -0.45489923	      0.48010282	     -1.00481056	    119.92074177	    -49.83718718	     13.24418288	    114.66882982	      2.00134863	     41.99353881	      0.00000000	      0.00000000	    118.77330996	      9.87417456	      1.72752023	    111.67723297	      1.94913541	     33.75299173	      0.00000000	      0.00000000	    -35.63206552	     23.72688850	     -9.10905485	    -52.95993684	    -45.00136090	      5.15564768	    107.35450605	     87.99147223	      0.00000000	      0.00000000	     -8.73188488	    -50.17165405	     55.94197956	     96.62470223	     87.88151916	      0.00000000	      0.00000000
      3.52000000	    -34.90377203	     -6.77340600	     22.62226835	     -0.45359391	      0.48007356	     -1.00466713	    119.91933019	    -49.83860645	     13.30387311	    114.80280604	      2.00368696	     41.93325217	      0.00000000	      0.00000000	    118.70473357	      9.83189159	      1.76982450	    111.76643416	      1.95069227	     33.85764856	      0.00000000	      0.00000000	    -35.37287553	     23.62274424	     -9.21802533	    -52.62671360	    -44.95259447	      5.23311763	    107.01177159	     88.01210230	      0.00000000	      0.00000000	     -8.51185441	    -49.95143680	     56.18404295	     96.25048630	     87.87584857	      0.00000000	      0.00000000
      3.52500000	    -35.04231930	     -6.91454973	     22.15701845	     -0.45095007	      0.47952692	     -1.00275608	    119.91194928	    -49.82041038	     12.51701787	    115.19864965	      2.01059573	     41.66227599	      0.00000000	      0.00000000	    118.75723828	      9.20219533	      2.14159032	    112.06979762	      1.95598696	     34.10156186	      0.00000000	      0.00000000	    -34.95829532	     23.20750450	     -8.97750703	    -51.87555193	    -44.88821554	      6.05210584	    106.35671448	     88.01896782	      0.00000000	      0.00000000	     -8.15208124	    -49.76687492	     56.78397350	     95.62163363	     87.87021187	      0.00000000	      0.00000000
      3.53000000	    -35.09907624	     -6.81809442	     22.34974474	     -0.45018310	      0.47996366	     -1.00347978	    119.91342012	    -49.83173059	     12.93337328	    115.12034196	      2.00922900	     41.78785751	      0.00000000	      0.00000000	    118.65337209	      9.46226110	      2.01314051	    112.00386557	      1.95483623	     34.16651210	      0.00000000	      0.00000000	    -34.55810014	     23.20083657	     -9.28338034	    -51.85832054	    -44.98656779	      5.99742210	    106.31001516	     88.01083485	      0.00000000	      0.00000000	     -7.90033157	    -49.61346184	     56.75450380	     95.57202749	     87.87301482	      0.00000000	      0.00000000
      3.53500000	    -35.17421313	     -6.69332315	     22.60459096	     -0.44978727	      0.48078006	     -1.00458330	    119.91614641	    -49.83735854	     13.44714718	    114.96153284	      2.00645726	     41.91231909	      0.00000000	      0.00000000	    118.53944313	      9.84339347	      1.82558846	    111.85625633	      1.95225996	     34.24536859	      0.00000000	      0.00000000	    -34.14919852	     23.22918686	     -9.70958816	    -51.90088309	    -45.13215278	      6.00278633	    106.49627703	     87.97772172	      0.00000000	      0.00000000	     -7.71381181	    -49.33614987	     56.88342216	     95.42597513	     87.87683882	      0.00000000	      0.00000000
      3.54000000	    -35.63660088	     -6.84662692	     21.96108440	     -0.44983712	      0.48150524	     -1.00225547	    119.91455039	    -49.76754085	     12.02082639	    114.69387789	      2.00178580	     41.92196740	      0.00000000	      0.00000000	    118.76015651	      9.21241114	      2.23909906	    111.55556834	      1.94701197	     34.35863311	      0.00000000	      0.00000000	    -33.60437922	     22.65304633	     -9.33547698	    -51.32701588	    -45.41536619	      6.40541703	    106.38504765	     88.02292815	      0.00000000	      0.00000000	     -7.25437828	    -49.49161192	     57.34049583	     95.42076161	     87.87858288	      0.00000000	      0.00000000
      3.54500000	    -36.09353592	     -7.11880162	     21.12717843	     -0.44846616	      0.48196823	     -0.99894697	    119.90662044	    -49.54949214	     10.44643503	    114.76702657	      2.00306249	     41.38029350	      0.00000000	      0.00000000	    118.99660575	      8.26883290	      2.83628225	    111.45176652	      1.94520028	     34.46394705	      0.00000000	      0.00000000	    -33.05188430	     22.02799365	     -8.65060537	    -50.90556917	    -45.13964700	      6.96340832	    106.21789660	     87.98383497	      0.00000000	      0.00000000	     -7.05898174	    -49.53621819	     57.43556897	     95.12183799	     87.87672173	      0.00000000	      0.00000000
      3.55000000	    -36.57036043	     -6.90790798	     19.93256116	     -0.44719463	      0.48326379	     -0.99556959	    119.90047985	    -48.80070027	      9.09440628	    114.63652411	      2.00078479	     40.89515208	      0.00000000	      0.00000000	    119.01391324	      6.95055195	      3.26472594	    111.31043525	      1.94273359	     34.62446353	      0.00000000	      0.00000000	    -32.68237577	     20.83821370	     -7.97741128	    -50.09958857	    -45.05453460	      7.70740550	    105.87484662	     87.95043521	      0.00000000	      0.00000000	     -6.65591469	    -49.64127804	     57.78154308	     94.83977264	     87.87641601	      0.00000000	      0.00000000
      3.55500000	    -37.24849472	     -5.67791119	     17.17397228	     -0.44430413	      0.48445365	     -0.98953932	    119.89496799	    -45.29684598	      8.55941552	    114.40293308	      1.99670786	     40.26441277	      0.00000000	      0.00000000	    118.83425203	      3.64355932	      3.43141901	    111.56456990	      1.94716907	     34.93675115	      0.00000000	      0.00000000	    -32.61256816	     17.77361050	     -6.53224591	    -48.91868115	    -44.60766004	      8.83499378	    105.18445284	     87.93641383	      0.00000000	      0.00000000	     -6.50828905	    -49.89344548	     57.93142153	     94.46153037	     87.86419875	      0.00000000	      0.00000000
      3.56000000	    -38.11922488	     -3.90355134	     13.63460011	     -0.44043353	      0.48545353	     -0.98214026	    119.89415506	    -40.49421860	      8.36818138	    114.07478266	      1.99098055	     40.09797172	      0.00000000	      0.00000000	    118.67152669	     -0.67342280	      3.47321186	    112.02782885	      1.95525447	     35.45648727	      0.00000000	      0.00000000	    -32.90266925	     13.93951099	     -7.67133270	    -43.42155830	    -46.89303816	     14.36640496	    104.25329677	     87.88343677	      0.00000000	      0.00000000	    -15.10158944	    -48.84619795	     48.20193161	     94.32710537	     87.83555978	      0.00000000	      0.00000000
      3.56500000	    -38.69577437	     -2.73228334	     11.19118468	     -0.43836460	      0.48702214	     -0.97675687	    119.88876054	    -37.07804059	      8.17272002	    113.69008524	      1.98426631	     39.67601714	      0.00000000	      0.00000000	    118.52153984	     -3.63357474	      3.57734946	    112.13028461	      1.95704266	     35.68743950	      0.00000000	      0.00000000	    -32.44839105	     11.22290433	     -6.56981831	    -42.31771599	    -46.59936923	     15.44769712	    103.74666691	     87.89100996	      0.00000000	      0.00000000	    -15.21856390	    -49.10588433	     48.08528544	     94.05379569	     87.83825806	      0.00000000	      0.00000000
